<svg height="512pt" viewBox="0 0 512.0006 512" width="512pt" xmlns="http://www.w3.org/2000/svg"><path d="m98.898438 98.894531c-93.296876 93.296875-120.582032 227.605469-81.863282 344.894531 7.972656 24.160157 27.011719 43.195313 51.171875 51.171876 39.328125 12.984374 80.566407 18.53125 121.535157 16.671874l19.863281-486.496093c-40.269531 16.484375-78.007813 41.058593-110.707031 73.757812zm0 0" fill="#ff6f4d"/><path d="m494.964844 68.203125c-7.972656-24.160156-27.011719-43.199219-51.171875-51.175781-76.183594-25.148438-159.542969-22.4375-234.1875 8.109375-115.246094 138.441406-123.429688 339.035156-19.863281 486.496093 81.210937-3.683593 161.34375-36.523437 223.359374-98.539062 93.296876-93.296875 120.582032-227.601562 81.863282-344.890625zm0 0" fill="#ff8f71"/><path d="m431.46875 80.527344c-32.441406-32.441406-69.5625-59.417969-109.898438-80.140625-37.707031 1.789062-75.171874 9.867187-110.6875 24.230469l1.617188.402343c66.175781 16.421875 126.78125 50.730469 175.261719 99.214844 48.484375 48.480469 82.792969 109.085937 99.214843 175.261719l.402344 1.617187c14.363282-35.515625 22.441406-72.980469 24.226563-110.6875-20.71875-40.339843-47.695313-77.460937-80.136719-109.898437zm0 0" fill="#efedee"/><path d="m237.648438 413.585938c-5.058594 0-10.015626-2.480469-12.972657-7.039063-4.648437-7.15625-2.613281-16.726563 4.542969-21.375 62.089844-40.324219 113.296875-96.175781 148.085938-161.515625 4.007812-7.535156 13.367187-10.390625 20.902343-6.378906 7.535157 4.011718 10.386719 13.367187 6.378907 20.902344-37.242188 69.953124-92.0625 129.742187-158.535157 172.910156-2.601562 1.6875-5.519531 2.496094-8.402343 2.496094zm0 0" fill="#d4d4d5"/><g fill="#efedee"><path d="m298.960938 319.335938c-5.898438-6.167969-15.679688-6.390626-21.847657-.496094-6.171875 5.894531-6.394531 15.675781-.5 21.847656l30.195313 31.601562c2.949218 3.085938 6.867187 4.683594 10.820312 4.773438s7.941406-1.328125 11.027344-4.277344c6.171875-5.894531 6.394531-15.675781.5-21.847656zm0 0"/><path d="m339.921875 274.457031c-6.414063-5.632812-16.179687-4.996093-21.808594 1.417969-5.628906 6.414062-4.992187 16.179688 1.421875 21.808594l32.847656 28.832031c3.207032 2.8125 7.25 4.0625 11.199219 3.804687 3.945313-.257812 7.792969-2.019531 10.609375-5.226562 5.628906-6.414062 4.992188-16.175781-1.421875-21.808594zm0 0"/><path d="m405.722656 250.828125-37.003906-23.261719c-7.222656-4.539062-16.761719-2.367187-21.304688 4.859375-4.542968 7.226563-2.367187 16.765625 4.859376 21.308594l37.003906 23.257813c2.554687 1.605468 5.398437 2.371093 8.207031 2.371093 5.140625 0 10.164063-2.5625 13.097656-7.230469 4.542969-7.226562 2.367188-16.765624-4.859375-21.304687zm0 0"/><path d="m256.605469 358.4375c-4.597657-7.1875-14.15625-9.285156-21.34375-4.683594-7.1875 4.601563-9.285157 14.160156-4.683594 21.347656l23.566406 36.808594c2.949219 4.609375 7.9375 7.125 13.027344 7.125 2.851563 0 5.738281-.789062 8.320313-2.441406 7.1875-4.601562 9.285156-14.160156 4.679687-21.347656zm0 0"/><path d="m301.117188 487.371094-1.617188-.398438c-61.667969-15.308594-118.496094-46.148437-165.183594-89.515625 11.972656 39.832031 30.277344 78.214844 55 113.558594.375.191406.742188.394531 1.113282.585937 37.710937-1.789062 75.171874-9.863281 110.6875-24.230468zm0 0"/></g><path d="m124.238281 387.757812c-48.480469-48.484374-82.789062-109.089843-99.214843-175.261718l-.402344-1.617188c-14.363282 35.515625-22.4375 72.976563-24.226563 110.683594 20.71875 40.339844 47.695313 77.460938 80.136719 109.902344 32.140625 32.140625 68.878906 58.910156 108.785156 79.550781-24.722656-35.34375-43.027344-73.722656-55-113.558594-3.414062-3.167969-6.773437-6.398437-10.078125-9.699219zm0 0" fill="#d4d4d5"/><path d="m207.457031 293.402344-7.285156 7.285156c-3.019531 3.015625-3.019531 7.910156 0 10.925781 3.015625 3.019531 7.910156 3.019531 10.925781 0l7.285156-7.285156c3.015626-3.015625 3.015626-7.90625 0-10.925781-3.019531-3.015625-7.910156-3.015625-10.925781 0zm0 0" fill="#ff6f4d"/><path d="m300.695312 200.164062-7.28125 7.28125c-3.019531 3.019532-3.019531 7.910157 0 10.929688 3.015626 3.015625 7.910157 3.015625 10.925782 0l7.285156-7.285156c3.015625-3.019532 3.015625-7.910156 0-10.925782-3.019531-3.019531-7.910156-3.019531-10.929688 0zm0 0" fill="#ff6f4d"/><path d="m190.699219 273.007812c-3.015625-3.019531-7.910157-3.019531-10.925781 0-3.015626 3.015626-3.015626 7.910157 0 10.925782l7.285156 7.285156c3.015625 3.015625 7.910156 3.015625 10.925781 0 3.019531-3.015625 3.019531-7.910156 0-10.925781zm0 0" fill="#313d40"/><path d="m291.226562 187.050781-7.285156-7.285156c-3.015625-3.015625-7.910156-3.015625-10.925781 0-3.019531 3.015625-3.019531 7.910156 0 10.925781l7.285156 7.285156c3.015625 3.019532 7.910157 3.019532 10.925781 0 3.015626-3.015624 3.015626-7.910156 0-10.925781zm0 0" fill="#313d40"/><path d="m261.703125 232.941406c-4.027344 1.417969-6.132813 5.835938-4.714844 9.859375 1.324219 3.75.324219 8.03125-2.546875 10.902344-2.875 2.871094-7.152344 3.875-10.90625 2.550781-4.023437-1.421875-8.4375.6875-9.859375 4.710938-1.417969 4.023437.691407 8.4375 4.714844 9.859375 9.332031 3.292969 19.917969.863281 26.976563-6.191407 7.054687-7.058593 9.484374-17.644531 6.191406-26.976562-1.417969-4.027344-5.832032-6.136719-9.855469-4.714844zm0 0" fill="#313d40"/></svg>
